<?xml version="1.0" encoding="utf-8"?>
<!-- Generator: Adobe Illustrator 15.0.0, SVG Export Plug-In . SVG Version: 6.00 Build 0)  -->
<svg version="1.2" baseProfile="tiny" id="Layer_1" xmlns="http://www.w3.org/2000/svg" xmlns:xlink="http://www.w3.org/1999/xlink"
	 x="0px" y="0px" width="16px" height="16px" viewBox="0 0 16 16" xml:space="preserve">
<g>
	<polygon fill="#1D1D1B" points="4.454,8.264 4.454,13.5 6.491,13.5 6.491,6.455 4.987,6.455 2.803,7.034 3.197,8.533 	"/>
	<polygon fill="#1D1D1B" points="8.413,13.5 10.693,13.5 13.987,7.963 13.987,6.504 8.242,6.504 8.242,8.133 11.695,8.133 	"/>
	<path fill="#1D1D1B" d="M13.866,2V0.5c0-0.276-0.237-0.5-0.533-0.5H11.2c-0.294,0-0.533,0.224-0.533,0.5V2H5.334V0.5
		C5.334,0.224,5.095,0,4.8,0H2.667C2.372,0,2.134,0.224,2.134,0.5V2H0v14h16V2H13.866z M11.733,1H12.8v2h-1.066V1z M3.2,1h1.066v2
		H3.2V1z M14.934,15H1.067V5h13.866V15z"/>
</g>
</svg>
