<?xml version="1.0" encoding="utf-8"?>
<!-- Generator: Adobe Illustrator 15.0.0, SVG Export Plug-In . SVG Version: 6.00 Build 0)  -->
<svg version="1.2" baseProfile="tiny" id="Layer_1" xmlns="http://www.w3.org/2000/svg" xmlns:xlink="http://www.w3.org/1999/xlink"
	 x="0px" y="0px" width="16px" height="16px" viewBox="0 0 16 16" xml:space="preserve">
<g>
	<path fill="#3F85C6" d="M3.886,7.622c-0.009,0.014-0.02,0.027-0.027,0.042c-0.009,0.017-0.017,0.033-0.025,0.05
		C3.83,7.722,3.824,7.73,3.82,7.739C3.818,7.745,3.817,7.751,3.816,7.755C3.809,7.772,3.803,7.79,3.799,7.809
		C3.795,7.822,3.79,7.837,3.786,7.851C3.781,7.87,3.78,7.888,3.777,7.905C3.774,7.918,3.773,7.934,3.772,7.949
		C3.769,7.968,3.769,7.985,3.77,8.005c0,0.011-0.001,0.029,0.002,0.042c0,0.02,0.004,0.039,0.006,0.056
		C3.781,8.118,3.781,8.13,3.785,8.145C3.79,8.163,3.795,8.182,3.801,8.199c0.004,0.013,0.008,0.029,0.014,0.042
		C3.817,8.247,3.817,8.253,3.82,8.259C3.825,8.27,3.832,8.28,3.836,8.292c0.007,0.013,0.014,0.027,0.021,0.04
		c0.008,0.018,0.02,0.033,0.03,0.048c0.007,0.011,0.016,0.023,0.026,0.035C3.924,8.43,3.936,8.445,3.951,8.458
		C3.957,8.466,3.96,8.472,3.968,8.48l3.178,3.178c0.265,0.266,0.694,0.266,0.959,0c0.265-0.266,0.265-0.694,0-0.96L6.087,8.68h6.286
		c0.234,0,0.441-0.119,0.564-0.3c0.072-0.11,0.115-0.239,0.115-0.381c0-0.188-0.075-0.357-0.199-0.479
		c-0.121-0.125-0.291-0.198-0.48-0.198l0,0H6.087l2.019-2.021c0.265-0.265,0.265-0.694,0-0.959c-0.133-0.133-0.306-0.2-0.481-0.2
		c-0.173,0-0.346,0.067-0.479,0.2L3.967,7.52C3.96,7.526,3.954,7.534,3.95,7.542C3.936,7.555,3.924,7.568,3.914,7.583
		C3.903,7.595,3.894,7.609,3.886,7.622z"/>
	<g>
		<path fill="#3F85C6" d="M8,16c4.418,0,8-3.582,8-8.001C16,3.581,12.418,0,8,0S0,3.581,0,7.999C0,12.418,3.582,16,8,16z M8,1.167
			c3.767,0,6.831,3.065,6.831,6.832s-3.064,6.83-6.831,6.83s-6.831-3.063-6.831-6.83S4.233,1.167,8,1.167z"/>
	</g>
</g>
</svg>
