<?xml version="1.0" encoding="utf-8"?>
<!-- Generator: Adobe Illustrator 15.0.0, SVG Export Plug-In . SVG Version: 6.00 Build 0)  -->
<svg version="1.2" baseProfile="tiny" id="Layer_1" xmlns="http://www.w3.org/2000/svg" xmlns:xlink="http://www.w3.org/1999/xlink"
	 x="0px" y="0px" width="16px" height="16px" viewBox="0 0 16 16" xml:space="preserve">
<g>
	<path fill="#3F85C6" d="M12.114,8.378c0.009-0.014,0.02-0.027,0.028-0.042c0.009-0.017,0.016-0.033,0.023-0.05
		c0.004-0.008,0.01-0.016,0.014-0.025c0.002-0.006,0.003-0.012,0.004-0.016c0.008-0.017,0.014-0.035,0.018-0.054
		c0.004-0.014,0.01-0.029,0.014-0.042c0.004-0.019,0.005-0.037,0.008-0.054c0.003-0.014,0.004-0.029,0.005-0.044
		c0.003-0.019,0.003-0.036,0.002-0.056c0-0.011,0.001-0.029-0.002-0.042c0-0.02-0.004-0.039-0.006-0.056
		c-0.003-0.015-0.003-0.027-0.006-0.042c-0.005-0.018-0.011-0.037-0.017-0.054c-0.004-0.013-0.008-0.029-0.014-0.042
		c-0.003-0.006-0.003-0.012-0.006-0.018c-0.005-0.011-0.012-0.021-0.017-0.033c-0.007-0.013-0.013-0.027-0.02-0.04
		c-0.009-0.018-0.021-0.033-0.03-0.048c-0.008-0.011-0.017-0.023-0.025-0.035c-0.012-0.015-0.023-0.031-0.039-0.044
		c-0.006-0.008-0.01-0.014-0.018-0.021L8.854,4.342c-0.265-0.265-0.694-0.265-0.959,0c-0.265,0.265-0.265,0.694,0,0.959L9.913,7.32
		H3.627c-0.234,0-0.441,0.119-0.564,0.3C2.99,7.73,2.947,7.859,2.947,8.001c0,0.188,0.075,0.357,0.199,0.479
		c0.121,0.125,0.291,0.198,0.48,0.198l0,0h6.286l-2.019,2.021c-0.265,0.266-0.265,0.694,0,0.96c0.133,0.132,0.306,0.199,0.481,0.199
		c0.173,0,0.346-0.067,0.479-0.199l3.179-3.179c0.007-0.005,0.013-0.013,0.018-0.021c0.015-0.013,0.026-0.027,0.037-0.042
		C12.097,8.405,12.105,8.391,12.114,8.378z"/>
	<g>
		<path fill="#3F85C6" d="M8,0.001c-4.418,0-8,3.582-8,8s3.582,7.998,8,7.998s8-3.58,8-7.998S12.418,0.001,8,0.001z M8,14.832
			c-3.767,0-6.831-3.064-6.831-6.831S4.233,1.172,8,1.172s6.831,3.063,6.831,6.829S11.767,14.832,8,14.832z"/>
	</g>
</g>
</svg>
