<?xml version="1.0" encoding="utf-8"?>
<!-- Generator: Adobe Illustrator 15.0.0, SVG Export Plug-In . SVG Version: 6.00 Build 0)  -->
<svg version="1.2" baseProfile="tiny" id="Layer_1" xmlns="http://www.w3.org/2000/svg" xmlns:xlink="http://www.w3.org/1999/xlink"
	 x="0px" y="0px" width="16px" height="16px" viewBox="0 0 16 16" xml:space="preserve">
<path fill="#333333" d="M13.66,12.012l-2.217-2.217c0.414-0.732,0.652-1.575,0.652-2.475c0-2.784-2.264-5.048-5.047-5.048
	S2,4.537,2,7.32c0,2.783,2.266,5.047,5.049,5.047c1.041,0,2.009-0.316,2.813-0.859l2.15,2.151C12.239,13.887,12.537,14,12.836,14
	c0.298,0,0.596-0.113,0.824-0.341C14.114,13.204,14.114,12.467,13.66,12.012z M3.554,7.32c0-1.927,1.567-3.495,3.495-3.495
	c1.927,0,3.494,1.568,3.494,3.495s-1.567,3.494-3.494,3.494C5.121,10.814,3.554,9.247,3.554,7.32z"/>
</svg>
